HIERARCHY
ROOT Bip001_Pelvis
{
  OFFSET 34.4345 95.6767 -26.8758
  CHANNELS 6 Xposition Yposition Zposition Zrotation Xrotation Yrotation
  JOINT Bip001_Spine
  {
    OFFSET 1.4188e-005 10.2191 -0.0116013
    CHANNELS 3 Zrotation Xrotation Yrotation
    JOINT Bip001_L_Thigh
    {
      OFFSET 11.0458 -10.2192 0.0116197
      CHANNELS 3 Zrotation Xrotation Yrotation
      JOINT Bip001_L_Calf
      {
        OFFSET -0.707118 -44.0221 0.360014
        CHANNELS 3 Zrotation Xrotation Yrotation
        JOINT Bip001_L_Foot
        {
          OFFSET -0.651902 -40.5938 -3.56146
          CHANNELS 3 Zrotation Xrotation Yrotation
          JOINT Bip001_L_Toe0
          {
            OFFSET 0.0530839 -10.2181 13.1504
            CHANNELS 3 Zrotation Xrotation Yrotation
            End Site
            {
              OFFSET -1.02532e-005 0 7.55606
            }
          }
        }
      }
    }
    JOINT Bip001_R_Thigh
    {
      OFFSET -11.0458 -10.2191 0.0115893
      CHANNELS 3 Zrotation Xrotation Yrotation
      JOINT Bip001_R_Calf
      {
        OFFSET 0.706994 -44.0221 0.35984
        CHANNELS 3 Zrotation Xrotation Yrotation
        JOINT Bip001_R_Foot
        {
          OFFSET 0.651786 -40.5938 -3.5613
          CHANNELS 3 Zrotation Xrotation Yrotation
          JOINT Bip001_R_Toe0
          {
            OFFSET -0.0531479 -10.2181 13.1504
            CHANNELS 3 Zrotation Xrotation Yrotation
            End Site
            {
              OFFSET -1.02894e-005 0 7.55606
            }
          }
        }
      }
    }
    JOINT Bip001_Spine1
    {
      OFFSET 1.87041e-005 14.5736 1.08638
      CHANNELS 3 Zrotation Xrotation Yrotation
      JOINT Bip001_Spine2
      {
        OFFSET 2.24614e-005 14.5058 -1.69078
        CHANNELS 3 Zrotation Xrotation Yrotation
        JOINT Bip001_Neck
        {
          OFFSET 2.20278e-005 15.3945 -0.489414
          CHANNELS 3 Zrotation Xrotation Yrotation
          JOINT Bip001_L_Clavicle
          {
            OFFSET 6.06036 -0.000579998 0.00836775
            CHANNELS 3 Zrotation Xrotation Yrotation
            JOINT Bip001_L_UpperArm
            {
              OFFSET 11.5509 -0.0600302 0.00193952
              CHANNELS 3 Zrotation Xrotation Yrotation
              JOINT Bip001_L_Forearm
              {
                OFFSET 25.9523 0.0806089 -2.15551
                CHANNELS 3 Zrotation Xrotation Yrotation
                JOINT Bip001_L_Hand
                {
                  OFFSET 32.2475 0.153767 1.63968
                  CHANNELS 3 Zrotation Xrotation Yrotation
                  JOINT Bip001_L_Finger0
                  {
                    OFFSET 6.04639 -2.20976 5.90322
                    CHANNELS 3 Zrotation Xrotation Yrotation
                    End Site
                    {
                      OFFSET 4.22375 -1.43895 0.606485
                    }
                  }
                  JOINT Bip001_L_Finger1
                  {
                    OFFSET 11.0826 -0.704819 -0.198153
                    CHANNELS 3 Zrotation Xrotation Yrotation
                    End Site
                    {
                      OFFSET 6.20027 -0.397518 -0.0787166
                    }
                  }
                }
              }
            }
          }
          JOINT Bip001_R_Clavicle
          {
            OFFSET -6.06037 -0.000563197 0.00835105
            CHANNELS 3 Zrotation Xrotation Yrotation
            JOINT Bip001_R_UpperArm
            {
              OFFSET -11.5509 -0.0599978 0.00190698
              CHANNELS 3 Zrotation Xrotation Yrotation
              JOINT Bip001_R_Forearm
              {
                OFFSET -25.9523 0.0806822 -2.15589
                CHANNELS 3 Zrotation Xrotation Yrotation
                JOINT Bip001_R_Hand
                {
                  OFFSET -32.2475 0.153859 1.63989
                  CHANNELS 3 Zrotation Xrotation Yrotation
                  JOINT Bip001_R_Finger0
                  {
                    OFFSET -6.04641 -2.20976 5.90317
                    CHANNELS 3 Zrotation Xrotation Yrotation
                    End Site
                    {
                      OFFSET -4.22376 -1.43895 0.60647
                    }
                  }
                  JOINT Bip001_R_Finger1
                  {
                    OFFSET -11.0826 -0.704794 -0.198182
                    CHANNELS 3 Zrotation Xrotation Yrotation
                    End Site
                    {
                      OFFSET -6.20028 -0.397504 -0.0787333
                    }
                  }
                }
              }
            }
          }
          JOINT Bip001_Head
          {
            OFFSET 1.09673e-005 11.2744 2.05948
            CHANNELS 3 Zrotation Xrotation Yrotation
            End Site
            {
              OFFSET 2.89576e-005 20.8808 -2.77728e-005
            }
          }
        }
      }
    }
  }
}
MOTION
Frames:	8
Frame Time:	0.04
42.0993 91.2546 -31.0755 -4.3939 -10.2878 6.92109 0.0809077 3.41531 0.669986 9.47928 -10.087 7.80343 -4.28672 39.2162 -2.63993 12.1819 -19.253 1.49135 2.36439 -6.25854 -1.69835 -6.06249 -1.5909 -2.3232 3.25521 26.3043 -0.182344 -11.3238 -8.25161 -10.9437 5.541 -16.3638 5.09191 0.120841 6.8312 1.33876 0.119839 6.8313 1.33878 4.37674 -6.29337 -5.20704 -24.375 7.33615 -3.52605 -52.2154 37.7444 2.62507 11.3641 -5.93934 -21.1523 7.30238 0.849819 -1.60543 -3.18055e-015 9.54166e-015 -3.18055e-015 -1.59028e-015 3.18056e-015 -0 9.39889 13.4326 29.2977 44.2485 -20.9944 40.773 -45.4105 6.09722 60.0095 -57.3369 -11.3197 12.3888 1.59028e-015 6.36111e-015 -3.97569e-016 2.38542e-015 0 -3.97569e-016 -6.06083 0.300541 -2.60622 
41.901 91.7588 -31.2609 -4.08349 -9.80639 8.45537 0.0551856 3.3825 0.933713 8.74392 -10.2977 6.81377 -3.2014 37.4583 -4.13327 11.7548 -18.0657 1.31566 2.19798 -6.22883 -1.49219 -5.68915 -0.683439 -3.3435 2.62376 23.9481 0.0442701 -10.9784 -7.1599 -11.4761 5.44 -16.1173 4.99576 0.0548436 6.76571 1.87511 0.0552468 6.76556 1.87196 3.7063 -7.67284 -7.05476 -24.5397 7.94265 -1.32116 -51.9589 39.6803 3.22504 11.4299 -4.33268 -20.4708 5.85152 1.14035 -1.59241 3.18055e-015 -3.18055e-015 1.59028e-015 1.59028e-015 0 3.18055e-015 6.85679 14.3502 32.1253 49.3351 -21.4215 49.5821 -45.6855 6.19601 51.1 -62.2472 -10.3243 11.5642 -2.64834e-031 -6.36111e-015 -2.38542e-015 5.96354e-016 -6.36111e-015 -2.88238e-015 -5.3339 0.960148 -4.72611 
41.6388 92.3443 -31.5785 -4.05967 -8.87179 10.093 -0.158577 3.21067 0.944309 8.47839 -10.7169 5.79916 -2.5264 35.2406 -5.25111 11.8487 -16.2457 1.14154 2.33978 -6.75596 -1.46896 -4.88562 0.0832335 -4.19884 2.07933 20.9048 0.1411 -10.4672 -5.77563 -11.9478 5.25401 -15.6632 4.82613 -0.368466 6.41827 1.89903 -0.370909 6.41832 1.90061 5.08006 -7.41397 -8.69838 -25.1943 6.97484 -0.685533 -53.0308 40.2224 5.1644 12.5046 -1.60085 -20.2786 4.22631 1.11777 -1.91207 1.05934e-030 1.27222e-014 -4.77083e-015 -3.18055e-015 1.27222e-014 -3.18055e-015 7.51269 14.7622 32.2185 57.6768 -29.8448 53.9344 -44.0407 5.51535 55.215 -52.1414 -10.6616 11.2245 1.59028e-015 0 -5.1684e-015 3.18055e-015 0 -1.59028e-015 -5.59547 0.620922 -5.92658 
41.4926 92.9419 -31.8041 -3.64401 -8.45081 10.1533 -0.343178 2.98453 0.567811 8.01943 -9.65206 6.74441 -1.66738 32.5329 -6.66581 11.0666 -15.1059 0.94668 1.95548 -6.68758 -1.02235 -4.72704 1.16388 -4.24556 1.34249 17.9929 0.292106 -9.68829 -4.75407 -11.3932 5.03579 -15.1589 4.68615 -0.726125 5.96546 1.1571 -0.72164 5.96547 1.15684 7.40575 -5.22022 -9.66533 -25.7257 4.27581 -0.748614 -57.4495 38.3439 10.1425 12.2983 -1.68714 -21.2398 5.65528 1.53068 -1.37867 1.59028e-015 -6.36111e-015 1.59028e-015 3.18055e-015 -9.54167e-015 3.18055e-015 7.38539 12.7081 31.0889 43.2832 -26.7498 49.6758 -35.4402 -0.241649 49.1817 -46.9253 -9.22655 11.7402 -3.18055e-015 0 -0 -1.59028e-015 -3.18056e-015 -7.95139e-016 -7.15614 -0.751024 -5.97985 
41.5077 93.4245 -31.9098 -3.03584 -8.61581 7.271 -0.160593 2.88687 0.187909 7.00759 -7.02634 9.19417 -1.44596 29.156 -6.65993 12.1563 -13.0505 0.798937 2.11732 -7.93291 -0.85021 -5.73204 1.73792 -3.04452 0.707362 16.1071 0.600355 -8.69121 -4.49638 -9.61379 4.7708 -14.5685 4.56947 -0.331136 5.77307 0.384285 -0.331218 5.77306 0.384483 4.84777 -5.00445 -8.64957 -24.4539 4.41321 0.175507 -61.2577 37.5036 14.1916 12.1351 -2.87049 -21.2865 4.96373 1.18105 -0.844854 4.77083e-015 -3.18055e-015 -0 3.18055e-015 -6.36111e-015 -0 6.63288 11.2944 29.8332 36.4842 -19.2304 48.7148 -31.4629 -5.31641 43.4661 -41.0211 -13.0516 12.2165 -3.18055e-015 -1.27222e-014 3.18055e-015 -3.18055e-015 -6.36111e-015 -1.59028e-015 -6.15697 -0.0223756 -5.78539 
41.2487 93.892 -32.2043 -3.24366 -8.1536 3.92304 0.0449264 2.95006 -0.048276 6.96196 -5.64393 11.0452 -2.01551 26.3591 -5.40039 12.4456 -11.5689 0.635609 2.20606 -8.57821 -0.732016 -6.02813 1.31727 -2.99299 0.0753134 13.8677 1.03289 -7.46604 -4.0324 -7.01619 4.46996 -13.9095 4.47777 0.0903276 5.90021 -0.0926483 0.0916624 5.90022 -0.0958626 1.68874 -7.37578 -6.87836 -23.2798 7.30802 0.938924 -61.1202 37.9536 14.3735 11.3356 -3.6605 -19.3616 2.77015 0.832911 -0.746119 5.56597e-015 1.59028e-014 -2.38542e-015 3.97569e-015 1.90833e-014 -2.38542e-015 7.08465 13.3602 31.0884 34.4527 -17.1105 44.4784 -30.8532 -7.7932 44.25 -39.5628 -14.3453 12.0658 -3.18055e-015 0 -1.59028e-015 0 0 -4.77083e-015 -3.42108 1.7705 -5.41168 
40.9985 94.3696 -32.4761 -3.30623 -7.53122 0.785597 0.102296 2.98342 0.2526 6.62486 -4.55456 11.1372 -2.41408 23.5615 -2.54657 10.6951 -11.1677 0.534996 2.18318 -7.98223 -0.686455 -6.29996 1.00905 -3.32592 -0.226761 11.3908 0.935083 -6.1751 -3.34608 -4.35266 4.18274 -13.2758 4.39322 0.1997 5.96723 0.500068 0.195715 5.96726 0.50015 1.51739 -8.10615 -6.7554 -24.0056 8.36443 0.019432 -59.034 39.2361 11.7133 10.0829 -2.83671 -15.6387 1.72623 0.400455 -0.799795 0 1.27222e-014 -0 -7.95139e-016 1.27222e-014 7.95139e-016 8.19128 14.3501 30.3225 33.4344 -16.4253 41.8144 -33.3053 -3.95809 47.4594 -40.402 -11.9189 11.6801 -3.18055e-015 0 -0 -3.18055e-015 -3.18056e-015 -0 -2.62905 1.32507 -5.53913 
40.9021 94.7455 -32.5834 -2.958 -7.22359 -1.91556 0.0775278 2.90881 0.490827 5.3283 -3.24318 11.2119 -1.44258 20.9087 -0.0740358 8.57645 -10.7867 0.411466 2.13606 -6.76308 -0.731687 -6.93093 0.993886 -4.26768 -0.540294 9.58937 0.761235 -4.81768 -3.05513 -1.31759 3.89237 -12.5847 4.26074 0.131444 5.8182 0.980054 0.128458 5.81821 0.979948 2.76639 -7.2074 -6.78976 -24.8574 7.51905 -1.03383 -58.1902 39.7633 9.65851 9.72157 -0.449605 -13.0759 1.72809 0.530272 -0.624682 1.32417e-031 3.18055e-015 -2.38542e-015 1.59028e-015 3.18056e-015 -1.59028e-015 9.52916 13.8647 28.4297 34.0993 -14.3359 36.4444 -37.8467 -0.0252528 54.1115 -38.0238 -11.4586 9.71289 2.64834e-031 -3.18055e-015 4.77083e-015 -0 0 3.18055e-015 -3.03917 -0.120416 -5.22138 
